<mxfile host="app.diagrams.net" modified="2023-08-20T15:39:07.994Z" agent="Mozilla/5.0 (Windows NT 10.0; Win64; x64) AppleWebKit/537.36 (KHTML, like Gecko) Chrome/109.0.0.0 Safari/537.36" version="21.5.0" etag="kuh7Zq-qwO0jlOekSMns" type="github">
  <diagram name="Page-1" id="LovJ93AcPua0J__7_d7l">
    <mxGraphModel>
      <root>
        <mxCell id="0" />
        <mxCell id="1" parent="0" />
      </root>
    </mxGraphModel>
  </diagram>
</mxfile>
